{"glyphs":{"0":{"ha":943,"x_min":142,"x_max":800,"o":"m 416 -7 q 256 75 338 -2 q 142 492 142 208 l 142 560 q 325 1027 142 926 q 416 1049 361 1040 l 416 857 q 398 848 407 852 q 347 560 347 793 l 347 492 q 398 203 347 258 l 416 190 l 416 -7 m 521 185 q 557 222 553 213 q 594 524 594 295 q 553 839 594 766 q 521 862 549 844 l 521 1054 q 704 949 612 1049 q 800 519 800 816 q 635 35 800 140 q 521 -7 599 7 l 521 185 z "},"1":{"ha":802,"x_min":121,"x_max":549,"o":"m 379 1054 l 540 1054 q 549 1044 540 1054 l 549 -12 q 540 -22 549 -17 l 347 -22 q 338 -12 342 -22 l 338 700 l 131 700 q 121 709 126 700 l 121 865 q 131 875 121 870 l 186 875 q 360 985 315 875 q 370 1031 370 1013 l 370 1044 q 379 1054 370 1049 z "},"2":{"ha":953,"x_min":123,"x_max":822,"o":"m 377 854 q 330 680 330 820 l 321 672 l 133 672 q 123 685 128 672 q 297 1044 123 951 q 415 1074 372 1074 l 420 1066 l 420 888 q 395 861 420 872 q 387 857 391 859 q 377 854 382 856 m 524 210 l 814 210 q 822 197 818 210 l 822 7 q 814 -1 822 3 l 524 -1 q 515 7 519 -1 l 515 197 q 524 210 515 202 m 505 872 l 505 1074 q 696 989 589 1072 q 802 735 802 892 l 802 727 q 552 338 802 507 q 403 202 461 274 l 403 7 q 394 -1 403 3 l 144 -1 q 134 12 134 -1 q 283 371 134 236 l 519 574 q 591 735 591 655 q 557 838 591 800 q 505 872 538 860 z "},"3":{"ha":949,"x_min":136,"x_max":839,"o":"m 432 1083 l 437 1073 l 437 908 q 395 882 437 887 q 344 748 344 851 l 344 733 q 334 722 344 728 l 157 722 l 146 733 q 334 1063 146 975 q 432 1083 380 1078 m 538 1083 q 735 990 642 1083 q 808 779 808 908 q 720 599 808 666 l 720 589 q 839 347 839 501 q 621 17 839 110 q 538 1 574 7 l 533 12 l 533 186 l 585 218 q 626 321 626 259 l 626 377 q 429 480 626 480 q 424 486 424 486 l 424 645 q 434 650 424 650 l 496 650 q 600 743 585 650 l 600 795 q 533 898 600 861 l 533 1073 l 538 1083 m 146 372 l 328 372 q 338 362 334 372 l 338 341 q 422 192 338 212 q 437 176 437 192 l 437 12 l 432 1 q 245 73 344 1 q 136 347 136 172 l 136 362 q 146 372 136 367 z "},"4":{"ha":956,"x_min":111,"x_max":842,"o":"m 536 1072 l 725 1072 q 740 1064 732 1072 l 740 418 l 834 418 q 842 412 834 418 l 842 239 q 834 225 842 232 l 740 225 l 740 3 q 725 -5 740 3 l 536 -5 q 529 3 536 -5 l 529 634 q 529 835 529 720 q 529 985 529 849 l 529 1064 q 536 1072 529 1064 m 410 978 q 431 964 431 971 l 431 720 q 293 433 431 699 q 286 418 286 426 l 286 418 l 424 418 q 431 412 431 418 l 431 239 q 424 225 431 232 l 119 225 q 111 239 119 225 l 111 412 q 220 619 111 426 l 410 978 z "},"5":{"ha":959,"x_min":142,"x_max":829,"o":"m 250 1086 l 404 1086 q 404 1077 404 1086 q 332 480 359 722 q 323 480 323 480 q 169 489 169 480 l 232 1086 l 250 1086 m 513 1086 l 783 1086 q 793 1077 793 1086 l 793 890 q 783 881 793 890 l 486 881 l 476 890 q 503 1086 503 1049 l 513 1086 m 549 741 q 810 536 720 741 q 829 396 829 443 q 630 32 829 135 q 539 4 566 4 l 530 14 l 530 181 q 576 218 530 200 q 621 359 621 284 l 621 406 q 530 545 621 526 l 486 545 q 431 536 467 545 l 431 536 q 458 732 449 732 q 549 741 486 741 m 151 340 l 332 340 q 359 256 340 340 q 440 200 395 200 l 440 181 l 440 14 q 431 4 440 14 q 178 172 269 4 q 142 331 142 247 l 151 340 z "},"6":{"ha":956,"x_min":123,"x_max":824,"o":"m 525 1081 q 720 1003 641 1081 q 800 817 800 907 q 806 799 806 817 l 800 793 l 616 793 q 598 835 598 793 q 525 889 568 889 l 519 907 l 519 1069 l 525 1081 m 422 1075 l 429 1069 l 429 901 q 386 859 429 883 q 331 667 331 775 l 337 667 q 422 709 380 703 l 429 703 l 429 535 q 374 499 429 529 q 331 391 331 451 l 331 337 q 429 186 331 235 l 429 13 l 422 1 q 258 73 307 24 q 123 529 123 193 l 123 535 q 307 1033 123 925 q 422 1075 374 1075 m 531 715 l 543 715 q 812 481 739 715 q 824 379 824 445 q 610 19 824 109 q 525 1 568 1 q 519 7 519 1 l 519 181 q 568 211 519 186 q 616 349 616 264 l 616 397 q 537 523 616 487 q 519 541 519 523 l 519 709 q 531 715 519 715 z "},"7":{"ha":925,"x_min":121,"x_max":806,"o":"m 132 1074 l 467 1074 q 477 1065 471 1074 l 477 882 q 467 873 477 878 l 132 873 q 121 882 127 873 l 121 1065 q 132 1074 121 1069 m 590 1074 l 795 1074 q 806 1065 800 1074 l 806 882 q 561 175 806 854 q 490 -3 500 2 l 260 -3 q 255 2 255 -3 q 581 920 576 882 q 581 1069 581 1050 l 590 1074 z "},"8":{"ha":949,"x_min":115,"x_max":840,"o":"m 425 1084 q 432 1072 425 1084 l 432 898 q 381 868 432 898 q 349 778 349 832 q 432 670 349 700 q 432 652 432 664 l 432 502 q 394 472 432 484 q 337 364 337 430 l 337 316 q 413 202 337 232 q 432 190 432 196 l 432 16 q 425 4 432 10 q 261 52 356 4 q 115 328 115 160 q 242 592 115 502 l 242 592 q 147 795 147 664 q 394 1084 147 1012 q 425 1084 413 1084 m 530 1084 q 707 1018 612 1084 q 808 802 808 928 q 713 598 808 676 l 713 598 q 840 352 840 508 q 656 40 840 148 q 530 4 574 4 l 523 16 l 523 190 q 568 214 523 190 q 618 322 618 262 l 618 364 q 542 478 618 448 q 523 490 523 484 l 523 652 q 561 688 523 670 q 599 784 599 718 q 542 886 599 862 q 523 910 523 886 l 523 1072 l 530 1084 z "},"9":{"ha":949,"x_min":134,"x_max":827,"o":"m 431 1085 l 438 1076 l 438 903 q 385 872 438 899 q 340 718 340 819 l 340 706 q 406 565 340 600 q 438 540 438 557 l 438 370 q 431 361 438 369 q 149 583 227 361 q 134 696 137 642 q 344 1069 134 970 q 431 1085 395 1085 m 536 1082 q 749 947 650 1082 q 827 590 827 804 l 827 508 q 617 25 827 130 q 532 0 589 13 l 526 9 l 526 179 q 567 216 526 195 q 627 420 627 309 l 620 420 q 529 370 574 376 l 526 376 l 526 540 q 573 574 526 558 q 623 722 623 619 q 548 884 623 841 q 526 907 526 888 l 526 1076 q 536 1082 526 1082 m 159 289 l 347 289 q 366 229 355 289 q 435 185 387 197 q 438 173 438 180 l 438 6 q 429 -3 438 2 q 171 185 243 -3 q 153 286 153 264 l 159 289 z "},"!":{"ha":0,"x_min":0,"x_max":0,"o":""},"@":{"ha":0,"x_min":0,"x_max":0,"o":""},"A":{"ha":1107,"x_min":64,"x_max":1054,"o":"m 597 1074 q 604 1067 604 1074 q 275 4 353 228 q 262 1 269 1 l 71 1 q 64 7 64 1 q 412 1074 394 1031 l 597 1074 m 712 1074 q 768 912 725 1074 q 1054 4 778 893 l 1048 1 l 847 1 q 812 71 825 1 q 608 768 755 224 q 703 1071 696 1064 q 712 1074 709 1074 m 608 419 q 638 349 629 419 q 671 222 642 348 l 665 219 l 434 219 q 429 229 429 219 q 484 419 475 412 l 608 419 z "},"B":{"ha":1097,"x_min":130,"x_max":994,"o":"m 140 1074 l 359 1074 q 370 1064 364 1074 l 370 10 q 359 0 370 5 l 140 0 q 130 10 136 0 l 130 1064 q 140 1074 130 1069 m 488 1074 l 511 1074 q 909 933 834 1074 q 949 782 949 856 q 795 559 949 648 q 994 285 994 475 q 728 17 994 88 q 575 0 636 0 l 488 0 q 477 10 484 0 l 477 186 q 488 197 477 192 l 596 197 q 744 307 744 197 l 744 335 q 650 451 744 437 q 593 454 624 454 l 488 454 q 477 465 484 454 l 477 642 q 488 652 477 646 l 559 652 q 710 739 710 652 l 710 771 q 569 873 710 873 l 488 873 q 477 884 484 873 l 477 1064 q 488 1074 477 1069 z "},"C":{"ha":1091,"x_min":111,"x_max":981,"o":"m 486 1065 l 492 1055 l 492 899 q 450 865 492 880 q 351 532 351 777 l 351 522 q 469 181 351 252 q 492 158 492 181 l 492 12 l 486 1 q 269 86 389 1 q 111 522 111 241 q 229 933 111 764 q 422 1053 349 1053 q 486 1065 422 1057 m 606 1065 q 939 879 826 1065 q 981 701 981 766 l 972 694 l 750 694 q 741 705 746 694 l 741 715 q 616 882 741 849 q 597 902 597 882 l 597 1059 q 606 1065 597 1065 m 750 362 l 972 362 l 981 355 q 846 76 981 182 q 604 1 730 1 l 597 12 l 597 165 q 667 192 598 172 q 741 345 741 240 l 741 351 q 750 362 741 356 z "},"D":{"ha":1079,"x_min":121,"x_max":998,"o":"m 130 1065 l 334 1065 q 345 1055 339 1065 l 345 15 q 334 5 345 10 l 130 5 q 121 15 125 5 l 121 1055 q 130 1065 121 1060 m 462 1065 q 954 798 851 1065 q 998 551 998 672 l 998 513 q 688 29 998 132 q 526 5 600 5 l 459 5 q 450 15 454 5 l 450 189 q 459 199 450 194 l 485 199 q 714 296 663 199 q 762 516 762 372 l 762 547 q 511 867 762 867 l 459 867 q 450 878 454 867 l 450 1055 q 462 1065 450 1064 z "},"E":{"ha":1085,"x_min":102,"x_max":983,"o":"m 113 1056 l 341 1056 q 352 1046 347 1056 l 352 5 q 341 -5 352 1 l 113 -5 q 102 5 108 -5 l 102 1046 q 113 1056 102 1050 m 481 1056 l 954 1056 q 966 1046 960 1056 l 966 868 q 954 858 966 863 l 481 858 q 469 868 475 858 l 469 1046 q 481 1056 469 1050 m 481 639 l 913 639 q 925 628 919 639 l 925 454 q 913 444 925 450 l 481 444 q 469 454 475 444 l 469 628 q 481 639 469 633 m 481 190 l 970 190 q 983 179 976 190 l 983 5 q 970 -5 983 1 l 481 -5 q 469 5 475 -5 l 469 179 q 481 190 469 184 z "},"F":{"ha":1095,"x_min":118,"x_max":976,"o":"m 128 1075 l 351 1075 q 361 1065 356 1075 l 361 15 q 351 5 361 10 l 128 5 q 118 15 123 5 l 118 1065 q 128 1075 118 1069 m 485 1075 l 962 1075 q 976 1065 968 1075 l 976 886 q 962 876 976 881 l 485 876 q 472 886 479 876 l 472 1065 q 485 1075 472 1069 m 485 650 l 927 650 q 940 640 933 650 l 940 460 q 927 450 940 456 l 485 450 q 472 460 479 450 l 472 640 q 485 650 472 644 z "},"G":{"ha":1218,"x_min":122,"x_max":1105,"o":"m 694 1086 q 992 1001 853 1086 q 1105 760 1105 908 l 1105 743 q 1096 732 1105 738 l 876 732 q 859 807 866 732 q 707 903 825 903 l 698 903 q 688 913 693 903 l 688 1076 l 694 1086 m 572 1083 l 575 1076 l 575 909 q 491 872 575 903 q 361 542 361 789 q 546 195 361 254 q 575 174 575 195 l 575 28 q 566 18 575 23 q 300 110 447 18 q 122 545 122 257 q 397 1042 122 915 q 572 1083 501 1083 m 698 593 l 1080 593 q 1090 583 1084 593 l 1090 79 q 1015 45 1090 54 q 713 18 972 28 l 694 18 q 688 25 688 18 l 688 178 q 701 189 688 186 q 866 209 770 189 l 866 399 l 698 399 q 688 410 693 399 l 688 583 q 698 593 688 588 z "},"H":{"ha":1141,"x_min":111,"x_max":1031,"o":"m 1031 1053 l 1031 2 l 821 2 l 821 1053 l 1031 1053 m 321 1050 l 321 -1 l 111 -1 l 111 1050 l 321 1050 m 712 649 l 712 433 l 431 433 l 431 649 l 712 649 z "},"I":{"ha":635,"x_min":218,"x_max":442,"o":"m 227 1068 l 433 1068 q 442 1058 437 1068 l 442 28 q 433 18 442 24 l 227 18 q 218 28 222 18 l 218 1058 q 227 1068 218 1063 z "},"J":{"ha":947,"x_min":102,"x_max":812,"o":"m 600 1072 l 803 1072 q 812 1061 808 1072 l 812 378 q 642 25 812 113 q 543 -3 606 10 l 537 7 l 537 168 q 569 231 537 176 q 591 351 591 283 l 591 1061 q 600 1072 591 1066 m 112 355 l 321 355 q 331 345 326 355 l 331 321 q 388 172 331 206 q 432 155 432 165 l 432 0 l 426 -10 q 131 183 210 -10 q 106 338 106 279 l 106 342 l 102 349 l 112 355 z "},"K":{"ha":1150,"x_min":155,"x_max":1037,"o":"m 165 1072 l 376 1072 q 386 1061 380 1072 l 386 5 q 376 -6 386 -1 l 165 -6 q 155 5 160 -6 l 155 1061 q 165 1072 155 1066 m 765 1072 l 1005 1072 q 1011 1065 1011 1070 q 651 580 674 623 q 1037 -3 1031 18 l 1037 -6 l 777 -6 q 700 96 757 -6 q 492 432 492 416 l 492 696 q 751 1068 492 718 q 765 1072 757 1072 z "},"L":{"ha":1042,"x_min":120,"x_max":943,"o":"m 130 1072 l 333 1072 q 342 1061 337 1072 l 342 26 q 333 16 342 22 l 130 16 q 120 26 125 16 l 120 1061 q 130 1072 120 1066 m 475 210 l 929 210 q 943 200 935 210 l 943 26 q 929 16 943 22 l 475 16 q 461 26 469 16 l 461 200 q 475 210 461 205 z "},"M":{"ha":1369,"x_min":125,"x_max":1265,"o":"m 135 1044 l 323 1044 l 333 1038 q 330 667 330 804 l 330 26 q 320 16 330 22 l 135 16 q 125 26 130 16 l 125 1034 q 135 1044 125 1039 m 442 1044 l 510 1044 q 569 842 518 1044 q 694 336 601 701 l 701 336 q 893 1041 888 1038 q 905 1044 899 1044 l 949 1044 q 958 1034 954 1044 l 958 673 q 776 20 958 643 l 771 16 l 621 16 q 592 81 600 16 q 433 683 433 651 l 433 1034 q 442 1044 433 1039 m 1067 1044 l 1256 1044 q 1265 1034 1260 1044 l 1265 26 q 1256 16 1265 22 l 1067 16 q 1058 26 1063 16 l 1058 1034 q 1067 1044 1058 1039 z "},"N":{"ha":1224,"x_min":151,"x_max":1101,"o":"m 160 1055 l 349 1055 q 358 1045 353 1055 l 358 16 q 349 6 358 12 l 160 6 q 151 16 155 6 l 151 1045 q 160 1055 151 1050 m 471 1055 l 500 1055 q 532 1003 519 1055 q 787 367 787 390 l 787 16 q 779 6 787 12 l 755 6 q 722 61 736 6 q 463 722 479 659 l 463 1045 q 471 1055 463 1050 m 906 1055 l 1093 1055 q 1101 1045 1097 1055 l 1101 16 q 1093 6 1101 12 l 906 6 q 897 16 902 6 l 897 1045 q 906 1055 897 1050 z "},"O":{"ha":1239,"x_min":128,"x_max":1111,"o":"m 682 1050 q 917 977 812 1038 q 1111 513 1111 827 q 917 73 1111 218 q 682 3 792 3 l 676 13 l 676 159 q 744 183 676 167 q 848 303 819 218 q 879 522 879 380 q 747 853 879 795 q 679 873 722 865 l 676 880 l 676 1040 l 682 1050 m 555 1046 l 558 1040 l 558 880 q 473 843 558 873 q 363 532 363 765 l 363 496 q 530 173 363 220 q 558 153 558 173 l 558 13 l 551 3 q 294 93 435 3 q 147 353 169 216 q 128 513 134 427 q 238 893 128 724 q 423 1020 353 1012 q 555 1046 498 1046 z "},"P":{"ha":1051,"x_min":128,"x_max":943,"o":"m 138 1063 l 344 1063 q 353 1053 348 1063 l 353 6 q 344 -4 353 1 l 138 -4 q 128 6 133 -4 l 128 1053 q 138 1063 128 1057 m 483 1063 q 943 737 943 1063 q 709 416 943 500 q 543 395 610 395 l 483 395 q 473 406 478 395 l 473 583 q 479 590 473 590 l 526 590 q 680 705 680 590 l 680 758 q 557 863 680 846 l 483 863 q 473 873 478 863 l 473 1053 q 483 1063 473 1057 z "},"Q":{"ha":1252,"x_min":119,"x_max":1124,"o":"m 643 1050 q 905 958 776 1050 q 1048 697 1014 858 q 1069 522 1069 583 q 985 241 1069 362 l 972 221 l 978 227 l 1124 165 q 1032 -7 1093 58 l 882 80 q 640 2 776 6 l 634 12 l 634 161 q 704 182 634 170 q 841 477 841 245 l 841 561 q 682 867 841 819 q 652 870 667 870 l 643 870 q 634 880 639 870 l 634 1040 q 643 1050 634 1045 m 518 1047 l 524 1037 l 524 877 q 463 851 523 869 q 348 551 348 775 l 348 481 q 488 182 348 244 q 524 165 524 176 l 524 16 q 518 9 524 9 q 244 132 374 9 q 119 518 119 281 q 254 927 119 765 q 454 1037 342 1013 q 518 1047 512 1047 z "},"R":{"ha":1122,"x_min":149,"x_max":1003,"o":"m 158 1076 l 371 1076 q 380 1065 376 1076 l 380 16 q 371 5 380 11 l 158 5 q 149 16 153 5 l 149 1065 q 158 1076 149 1071 m 496 1076 l 545 1076 q 932 932 873 1076 q 967 795 967 878 l 967 788 q 809 543 967 613 l 809 539 q 903 462 870 508 q 961 138 938 411 q 1003 12 983 37 q 996 5 1003 5 l 773 5 q 745 65 751 5 q 713 353 725 170 q 645 423 692 423 l 493 423 q 483 434 489 423 l 483 613 q 493 623 483 618 l 619 623 q 729 736 729 636 l 729 767 q 600 876 729 876 l 496 876 q 487 886 492 876 l 487 1065 q 496 1076 487 1071 z "},"S":{"ha":1055,"x_min":102,"x_max":935,"o":"m 587 1068 q 819 979 707 1068 q 910 736 910 878 q 904 730 910 730 l 706 730 q 696 740 702 730 l 696 753 q 606 880 696 857 q 581 894 581 884 l 581 1058 l 587 1068 m 473 1061 l 476 1055 l 476 890 q 414 863 475 884 q 359 747 359 831 q 473 641 359 675 l 476 634 l 476 429 q 470 422 476 422 q 127 716 127 506 q 278 1000 127 894 q 473 1061 349 1045 m 587 631 q 935 354 935 552 l 935 330 q 712 22 935 102 q 584 -1 630 -1 l 581 5 l 581 152 q 625 180 581 174 q 703 286 703 208 l 703 296 q 584 409 703 361 q 581 422 581 415 l 581 624 q 587 631 582 631 m 112 354 l 315 354 q 325 340 325 354 q 391 186 325 225 q 473 162 422 170 l 476 155 l 476 2 l 470 -8 q 124 190 201 -8 q 102 334 102 260 l 102 344 q 112 354 102 349 z "},"T":{"ha":1082,"x_min":102,"x_max":972,"o":"m 113 1057 l 963 1057 q 972 1047 967 1057 l 972 871 q 963 861 972 866 l 113 861 q 102 871 108 861 l 102 1047 q 113 1057 102 1052 m 434 745 l 640 745 q 650 735 645 745 l 650 16 q 640 6 650 12 l 434 6 q 425 16 430 6 l 425 735 q 434 745 425 740 z "},"U":{"ha":1122,"x_min":136,"x_max":987,"o":"m 144 1057 l 336 1057 q 345 1047 340 1057 l 345 604 q 341 423 345 529 q 416 205 341 258 q 506 175 450 182 l 509 168 l 509 18 q 497 7 509 7 q 245 106 362 7 q 136 440 136 214 l 136 1047 q 144 1057 136 1052 m 790 1057 l 979 1057 q 987 1047 983 1057 l 987 403 q 828 66 987 182 q 642 7 714 7 l 637 18 l 637 161 q 680 189 637 183 q 782 423 782 224 l 782 1047 q 790 1057 782 1052 z "},"V":{"ha":1205,"x_min":125,"x_max":1081,"o":"m 1075 1063 q 1081 1057 1080 1063 q 806 268 842 359 q 748 121 762 121 l 745 121 q 652 401 733 121 q 836 999 687 534 q 869 1063 846 1063 l 1075 1063 m 333 1059 q 636 17 452 643 q 630 7 636 7 l 475 7 q 463 10 469 7 q 125 1056 458 16 q 131 1063 125 1061 l 318 1063 l 333 1059 z "},"W":{"ha":1529,"x_min":115,"x_max":1436,"o":"m 121 1042 l 322 1042 q 363 830 332 1042 l 511 3 l 506 -1 l 340 -1 q 296 187 329 -1 q 115 1038 287 218 l 121 1042 m 884 1042 q 906 983 906 1042 q 1008 440 911 966 q 931 26 939 44 l 926 26 q 873 277 915 26 l 785 727 l 783 727 q 642 51 777 714 q 634 47 639 51 q 595 221 621 47 l 557 423 q 689 1042 681 1025 l 884 1042 m 1250 1042 l 1430 1042 q 1436 1035 1436 1040 q 1208 3 1223 62 l 1202 -1 l 1046 -1 l 1040 3 q 1244 1038 1146 517 l 1250 1042 z "},"X":{"ha":1286,"x_min":162,"x_max":1180,"o":"m 162 1052 l 416 1052 l 600 784 l 467 585 q 162 1048 173 1023 l 162 1052 m 912 1052 l 1127 1052 q 832 583 1120 1024 l 456 3 q 442 0 450 0 l 224 0 q 218 7 218 0 q 899 1048 832 956 q 912 1052 904 1052 m 882 442 q 880 441 881 441 l 882 442 m 873 430 q 880 441 870 424 l 1180 7 q 1174 0 1180 0 l 926 0 l 745 243 l 753 245 l 873 430 m 877 446 l 880 441 l 873 430 q 877 446 875 433 z "},"Y":{"ha":1178,"x_min":101,"x_max":1067,"o":"m 108 1052 l 361 1059 l 534 684 q 408 416 416 422 q 101 1048 172 892 l 108 1052 m 844 1052 l 1061 1052 q 1067 1041 1067 1052 q 730 336 730 347 l 730 3 q 720 -7 730 -2 l 503 -7 q 493 3 498 -7 l 493 288 q 662 673 493 305 l 831 1048 q 844 1052 836 1052 z "},"Z":{"ha":1153,"x_min":90,"x_max":1079,"o":"m 125 1074 l 521 1074 q 531 1063 526 1074 l 531 883 q 521 873 531 878 l 125 873 q 116 883 122 873 l 116 1063 q 125 1074 116 1068 m 670 1074 l 987 1074 q 998 1063 992 1074 l 998 901 q 435 183 998 875 l 435 10 q 425 0 435 5 l 108 0 q 97 10 102 0 l 90 159 l 659 887 l 659 1063 q 670 1074 659 1068 m 605 197 l 1068 197 q 1079 186 1073 197 l 1079 10 q 1068 0 1079 5 l 605 0 q 593 10 600 0 l 593 186 q 605 197 593 192 z "},"}":{"ha":0,"x_min":0,"x_max":0,"o":""}}}
